<?xml version="1.0" encoding="utf-8" standalone="no"?>
<!DOCTYPE svg PUBLIC "-//W3C//DTD SVG 1.1//EN"
  "http://www.w3.org/Graphics/SVG/1.1/DTD/svg11.dtd">
<svg height="576pt" version="1.1" viewBox="0 0 1152 576" width="1152pt" xmlns="http://www.w3.org/2000/svg" xmlns:xlink="http://www.w3.org/1999/xlink">
 <metadata>
  <rdf:RDF xmlns:cc="http://creativecommons.org/ns#" xmlns:dc="http://purl.org/dc/elements/1.1/" xmlns:rdf="http://www.w3.org/1999/02/22-rdf-syntax-ns#">
   <cc:Work>
    <dc:type rdf:resource="http://purl.org/dc/dcmitype/StillImage"/>
    <dc:date>2021-09-02T16:00:52.707053</dc:date>
    <dc:format>image/svg+xml</dc:format>
    <dc:creator>
     <cc:Agent>
      <dc:title>Matplotlib v3.4.2, https://matplotlib.org/</dc:title>
     </cc:Agent>
    </dc:creator>
   </cc:Work>
  </rdf:RDF>
 </metadata>
 <defs>
  <style type="text/css">*{stroke-linecap:butt;stroke-linejoin:round;}</style>
 </defs>
 <g id="figure_1">
  <g id="patch_1">
   <path d="M 0 576 
L 1152 576 
L 1152 0 
L 0 0 
z
" style="fill:#ffffff;"/>
  </g>
  <g id="axes_1">
   <g id="patch_2">
    <path d="M 182.27 444.04 
L 1108.8 444.04 
L 1108.8 43.2 
L 182.27 43.2 
z
" style="fill:#ffffff;"/>
   </g>
   <g id="matplotlib.axis_1">
    <g id="xtick_1">
     <g id="line2d_1">
      <defs>
       <path d="M 0 0 
L 0 3.5 
" id="m77f7aaa4cc" style="stroke:#000000;stroke-width:0.8;"/>
      </defs>
      <g>
       <use style="stroke:#000000;stroke-width:0.8;" x="226.390476" xlink:href="#m77f7aaa4cc" y="444.04"/>
      </g>
     </g>
     <g id="text_1">
      <!-- 1 -->
      <g transform="translate(213.665476 481.43375)scale(0.4 -0.4)">
       <defs>
        <path d="M 794 531 
L 1825 531 
L 1825 4091 
L 703 3866 
L 703 4441 
L 1819 4666 
L 2450 4666 
L 2450 531 
L 3481 531 
L 3481 0 
L 794 0 
L 794 531 
z
" id="DejaVuSans-31" transform="scale(0.015625)"/>
       </defs>
       <use xlink:href="#DejaVuSans-31"/>
      </g>
     </g>
    </g>
    <g id="xtick_2">
     <g id="line2d_2">
      <g>
       <use style="stroke:#000000;stroke-width:0.8;" x="270.510952" xlink:href="#m77f7aaa4cc" y="444.04"/>
      </g>
     </g>
     <g id="text_2">
      <!-- 2 -->
      <g transform="translate(257.785952 481.43375)scale(0.4 -0.4)">
       <defs>
        <path d="M 1228 531 
L 3431 531 
L 3431 0 
L 469 0 
L 469 531 
Q 828 903 1448 1529 
Q 2069 2156 2228 2338 
Q 2531 2678 2651 2914 
Q 2772 3150 2772 3378 
Q 2772 3750 2511 3984 
Q 2250 4219 1831 4219 
Q 1534 4219 1204 4116 
Q 875 4013 500 3803 
L 500 4441 
Q 881 4594 1212 4672 
Q 1544 4750 1819 4750 
Q 2544 4750 2975 4387 
Q 3406 4025 3406 3419 
Q 3406 3131 3298 2873 
Q 3191 2616 2906 2266 
Q 2828 2175 2409 1742 
Q 1991 1309 1228 531 
z
" id="DejaVuSans-32" transform="scale(0.015625)"/>
       </defs>
       <use xlink:href="#DejaVuSans-32"/>
      </g>
     </g>
    </g>
    <g id="xtick_3">
     <g id="line2d_3">
      <g>
       <use style="stroke:#000000;stroke-width:0.8;" x="314.631429" xlink:href="#m77f7aaa4cc" y="444.04"/>
      </g>
     </g>
     <g id="text_3">
      <!-- 3 -->
      <g transform="translate(301.906429 481.43375)scale(0.4 -0.4)">
       <defs>
        <path d="M 2597 2516 
Q 3050 2419 3304 2112 
Q 3559 1806 3559 1356 
Q 3559 666 3084 287 
Q 2609 -91 1734 -91 
Q 1441 -91 1130 -33 
Q 819 25 488 141 
L 488 750 
Q 750 597 1062 519 
Q 1375 441 1716 441 
Q 2309 441 2620 675 
Q 2931 909 2931 1356 
Q 2931 1769 2642 2001 
Q 2353 2234 1838 2234 
L 1294 2234 
L 1294 2753 
L 1863 2753 
Q 2328 2753 2575 2939 
Q 2822 3125 2822 3475 
Q 2822 3834 2567 4026 
Q 2313 4219 1838 4219 
Q 1578 4219 1281 4162 
Q 984 4106 628 3988 
L 628 4550 
Q 988 4650 1302 4700 
Q 1616 4750 1894 4750 
Q 2613 4750 3031 4423 
Q 3450 4097 3450 3541 
Q 3450 3153 3228 2886 
Q 3006 2619 2597 2516 
z
" id="DejaVuSans-33" transform="scale(0.015625)"/>
       </defs>
       <use xlink:href="#DejaVuSans-33"/>
      </g>
     </g>
    </g>
    <g id="xtick_4">
     <g id="line2d_4">
      <g>
       <use style="stroke:#000000;stroke-width:0.8;" x="358.751905" xlink:href="#m77f7aaa4cc" y="444.04"/>
      </g>
     </g>
     <g id="text_4">
      <!-- 4 -->
      <g transform="translate(346.026905 481.43375)scale(0.4 -0.4)">
       <defs>
        <path d="M 2419 4116 
L 825 1625 
L 2419 1625 
L 2419 4116 
z
M 2253 4666 
L 3047 4666 
L 3047 1625 
L 3713 1625 
L 3713 1100 
L 3047 1100 
L 3047 0 
L 2419 0 
L 2419 1100 
L 313 1100 
L 313 1709 
L 2253 4666 
z
" id="DejaVuSans-34" transform="scale(0.015625)"/>
       </defs>
       <use xlink:href="#DejaVuSans-34"/>
      </g>
     </g>
    </g>
    <g id="xtick_5">
     <g id="line2d_5">
      <g>
       <use style="stroke:#000000;stroke-width:0.8;" x="402.872381" xlink:href="#m77f7aaa4cc" y="444.04"/>
      </g>
     </g>
     <g id="text_5">
      <!-- 5 -->
      <g transform="translate(390.147381 481.43375)scale(0.4 -0.4)">
       <defs>
        <path d="M 691 4666 
L 3169 4666 
L 3169 4134 
L 1269 4134 
L 1269 2991 
Q 1406 3038 1543 3061 
Q 1681 3084 1819 3084 
Q 2600 3084 3056 2656 
Q 3513 2228 3513 1497 
Q 3513 744 3044 326 
Q 2575 -91 1722 -91 
Q 1428 -91 1123 -41 
Q 819 9 494 109 
L 494 744 
Q 775 591 1075 516 
Q 1375 441 1709 441 
Q 2250 441 2565 725 
Q 2881 1009 2881 1497 
Q 2881 1984 2565 2268 
Q 2250 2553 1709 2553 
Q 1456 2553 1204 2497 
Q 953 2441 691 2322 
L 691 4666 
z
" id="DejaVuSans-35" transform="scale(0.015625)"/>
       </defs>
       <use xlink:href="#DejaVuSans-35"/>
      </g>
     </g>
    </g>
    <g id="xtick_6">
     <g id="line2d_6">
      <g>
       <use style="stroke:#000000;stroke-width:0.8;" x="446.992857" xlink:href="#m77f7aaa4cc" y="444.04"/>
      </g>
     </g>
     <g id="text_6">
      <!-- 6 -->
      <g transform="translate(434.267857 481.43375)scale(0.4 -0.4)">
       <defs>
        <path d="M 2113 2584 
Q 1688 2584 1439 2293 
Q 1191 2003 1191 1497 
Q 1191 994 1439 701 
Q 1688 409 2113 409 
Q 2538 409 2786 701 
Q 3034 994 3034 1497 
Q 3034 2003 2786 2293 
Q 2538 2584 2113 2584 
z
M 3366 4563 
L 3366 3988 
Q 3128 4100 2886 4159 
Q 2644 4219 2406 4219 
Q 1781 4219 1451 3797 
Q 1122 3375 1075 2522 
Q 1259 2794 1537 2939 
Q 1816 3084 2150 3084 
Q 2853 3084 3261 2657 
Q 3669 2231 3669 1497 
Q 3669 778 3244 343 
Q 2819 -91 2113 -91 
Q 1303 -91 875 529 
Q 447 1150 447 2328 
Q 447 3434 972 4092 
Q 1497 4750 2381 4750 
Q 2619 4750 2861 4703 
Q 3103 4656 3366 4563 
z
" id="DejaVuSans-36" transform="scale(0.015625)"/>
       </defs>
       <use xlink:href="#DejaVuSans-36"/>
      </g>
     </g>
    </g>
    <g id="xtick_7">
     <g id="line2d_7">
      <g>
       <use style="stroke:#000000;stroke-width:0.8;" x="491.113333" xlink:href="#m77f7aaa4cc" y="444.04"/>
      </g>
     </g>
     <g id="text_7">
      <!-- 7 -->
      <g transform="translate(478.388333 481.43375)scale(0.4 -0.4)">
       <defs>
        <path d="M 525 4666 
L 3525 4666 
L 3525 4397 
L 1831 0 
L 1172 0 
L 2766 4134 
L 525 4134 
L 525 4666 
z
" id="DejaVuSans-37" transform="scale(0.015625)"/>
       </defs>
       <use xlink:href="#DejaVuSans-37"/>
      </g>
     </g>
    </g>
    <g id="xtick_8">
     <g id="line2d_8">
      <g>
       <use style="stroke:#000000;stroke-width:0.8;" x="535.23381" xlink:href="#m77f7aaa4cc" y="444.04"/>
      </g>
     </g>
     <g id="text_8">
      <!-- 8 -->
      <g transform="translate(522.50881 481.43375)scale(0.4 -0.4)">
       <defs>
        <path d="M 2034 2216 
Q 1584 2216 1326 1975 
Q 1069 1734 1069 1313 
Q 1069 891 1326 650 
Q 1584 409 2034 409 
Q 2484 409 2743 651 
Q 3003 894 3003 1313 
Q 3003 1734 2745 1975 
Q 2488 2216 2034 2216 
z
M 1403 2484 
Q 997 2584 770 2862 
Q 544 3141 544 3541 
Q 544 4100 942 4425 
Q 1341 4750 2034 4750 
Q 2731 4750 3128 4425 
Q 3525 4100 3525 3541 
Q 3525 3141 3298 2862 
Q 3072 2584 2669 2484 
Q 3125 2378 3379 2068 
Q 3634 1759 3634 1313 
Q 3634 634 3220 271 
Q 2806 -91 2034 -91 
Q 1263 -91 848 271 
Q 434 634 434 1313 
Q 434 1759 690 2068 
Q 947 2378 1403 2484 
z
M 1172 3481 
Q 1172 3119 1398 2916 
Q 1625 2713 2034 2713 
Q 2441 2713 2670 2916 
Q 2900 3119 2900 3481 
Q 2900 3844 2670 4047 
Q 2441 4250 2034 4250 
Q 1625 4250 1398 4047 
Q 1172 3844 1172 3481 
z
" id="DejaVuSans-38" transform="scale(0.015625)"/>
       </defs>
       <use xlink:href="#DejaVuSans-38"/>
      </g>
     </g>
    </g>
    <g id="xtick_9">
     <g id="line2d_9">
      <g>
       <use style="stroke:#000000;stroke-width:0.8;" x="579.354286" xlink:href="#m77f7aaa4cc" y="444.04"/>
      </g>
     </g>
     <g id="text_9">
      <!-- 9 -->
      <g transform="translate(566.629286 481.43375)scale(0.4 -0.4)">
       <defs>
        <path d="M 703 97 
L 703 672 
Q 941 559 1184 500 
Q 1428 441 1663 441 
Q 2288 441 2617 861 
Q 2947 1281 2994 2138 
Q 2813 1869 2534 1725 
Q 2256 1581 1919 1581 
Q 1219 1581 811 2004 
Q 403 2428 403 3163 
Q 403 3881 828 4315 
Q 1253 4750 1959 4750 
Q 2769 4750 3195 4129 
Q 3622 3509 3622 2328 
Q 3622 1225 3098 567 
Q 2575 -91 1691 -91 
Q 1453 -91 1209 -44 
Q 966 3 703 97 
z
M 1959 2075 
Q 2384 2075 2632 2365 
Q 2881 2656 2881 3163 
Q 2881 3666 2632 3958 
Q 2384 4250 1959 4250 
Q 1534 4250 1286 3958 
Q 1038 3666 1038 3163 
Q 1038 2656 1286 2365 
Q 1534 2075 1959 2075 
z
" id="DejaVuSans-39" transform="scale(0.015625)"/>
       </defs>
       <use xlink:href="#DejaVuSans-39"/>
      </g>
     </g>
    </g>
    <g id="xtick_10">
     <g id="line2d_10">
      <g>
       <use style="stroke:#000000;stroke-width:0.8;" x="623.474762" xlink:href="#m77f7aaa4cc" y="444.04"/>
      </g>
     </g>
     <g id="text_10">
      <!-- 10 -->
      <g transform="translate(598.024762 481.43375)scale(0.4 -0.4)">
       <defs>
        <path d="M 2034 4250 
Q 1547 4250 1301 3770 
Q 1056 3291 1056 2328 
Q 1056 1369 1301 889 
Q 1547 409 2034 409 
Q 2525 409 2770 889 
Q 3016 1369 3016 2328 
Q 3016 3291 2770 3770 
Q 2525 4250 2034 4250 
z
M 2034 4750 
Q 2819 4750 3233 4129 
Q 3647 3509 3647 2328 
Q 3647 1150 3233 529 
Q 2819 -91 2034 -91 
Q 1250 -91 836 529 
Q 422 1150 422 2328 
Q 422 3509 836 4129 
Q 1250 4750 2034 4750 
z
" id="DejaVuSans-30" transform="scale(0.015625)"/>
       </defs>
       <use xlink:href="#DejaVuSans-31"/>
       <use x="63.623047" xlink:href="#DejaVuSans-30"/>
      </g>
     </g>
    </g>
    <g id="xtick_11">
     <g id="line2d_11">
      <g>
       <use style="stroke:#000000;stroke-width:0.8;" x="667.595238" xlink:href="#m77f7aaa4cc" y="444.04"/>
      </g>
     </g>
     <g id="text_11">
      <!-- 11 -->
      <g transform="translate(642.145238 481.43375)scale(0.4 -0.4)">
       <use xlink:href="#DejaVuSans-31"/>
       <use x="63.623047" xlink:href="#DejaVuSans-31"/>
      </g>
     </g>
    </g>
    <g id="xtick_12">
     <g id="line2d_12">
      <g>
       <use style="stroke:#000000;stroke-width:0.8;" x="711.715714" xlink:href="#m77f7aaa4cc" y="444.04"/>
      </g>
     </g>
     <g id="text_12">
      <!-- 12 -->
      <g transform="translate(686.265714 481.43375)scale(0.4 -0.4)">
       <use xlink:href="#DejaVuSans-31"/>
       <use x="63.623047" xlink:href="#DejaVuSans-32"/>
      </g>
     </g>
    </g>
    <g id="xtick_13">
     <g id="line2d_13">
      <g>
       <use style="stroke:#000000;stroke-width:0.8;" x="755.83619" xlink:href="#m77f7aaa4cc" y="444.04"/>
      </g>
     </g>
     <g id="text_13">
      <!-- 13 -->
      <g transform="translate(730.38619 481.43375)scale(0.4 -0.4)">
       <use xlink:href="#DejaVuSans-31"/>
       <use x="63.623047" xlink:href="#DejaVuSans-33"/>
      </g>
     </g>
    </g>
    <g id="xtick_14">
     <g id="line2d_14">
      <g>
       <use style="stroke:#000000;stroke-width:0.8;" x="799.956667" xlink:href="#m77f7aaa4cc" y="444.04"/>
      </g>
     </g>
     <g id="text_14">
      <!-- 14 -->
      <g transform="translate(774.506667 481.43375)scale(0.4 -0.4)">
       <use xlink:href="#DejaVuSans-31"/>
       <use x="63.623047" xlink:href="#DejaVuSans-34"/>
      </g>
     </g>
    </g>
    <g id="xtick_15">
     <g id="line2d_15">
      <g>
       <use style="stroke:#000000;stroke-width:0.8;" x="844.077143" xlink:href="#m77f7aaa4cc" y="444.04"/>
      </g>
     </g>
     <g id="text_15">
      <!-- 15 -->
      <g transform="translate(818.627143 481.43375)scale(0.4 -0.4)">
       <use xlink:href="#DejaVuSans-31"/>
       <use x="63.623047" xlink:href="#DejaVuSans-35"/>
      </g>
     </g>
    </g>
    <g id="xtick_16">
     <g id="line2d_16">
      <g>
       <use style="stroke:#000000;stroke-width:0.8;" x="888.197619" xlink:href="#m77f7aaa4cc" y="444.04"/>
      </g>
     </g>
     <g id="text_16">
      <!-- 16 -->
      <g transform="translate(862.747619 481.43375)scale(0.4 -0.4)">
       <use xlink:href="#DejaVuSans-31"/>
       <use x="63.623047" xlink:href="#DejaVuSans-36"/>
      </g>
     </g>
    </g>
    <g id="xtick_17">
     <g id="line2d_17">
      <g>
       <use style="stroke:#000000;stroke-width:0.8;" x="932.318095" xlink:href="#m77f7aaa4cc" y="444.04"/>
      </g>
     </g>
     <g id="text_17">
      <!-- 17 -->
      <g transform="translate(906.868095 481.43375)scale(0.4 -0.4)">
       <use xlink:href="#DejaVuSans-31"/>
       <use x="63.623047" xlink:href="#DejaVuSans-37"/>
      </g>
     </g>
    </g>
    <g id="xtick_18">
     <g id="line2d_18">
      <g>
       <use style="stroke:#000000;stroke-width:0.8;" x="976.438571" xlink:href="#m77f7aaa4cc" y="444.04"/>
      </g>
     </g>
     <g id="text_18">
      <!-- 18 -->
      <g transform="translate(950.988571 481.43375)scale(0.4 -0.4)">
       <use xlink:href="#DejaVuSans-31"/>
       <use x="63.623047" xlink:href="#DejaVuSans-38"/>
      </g>
     </g>
    </g>
    <g id="xtick_19">
     <g id="line2d_19">
      <g>
       <use style="stroke:#000000;stroke-width:0.8;" x="1020.559048" xlink:href="#m77f7aaa4cc" y="444.04"/>
      </g>
     </g>
     <g id="text_19">
      <!-- 19 -->
      <g transform="translate(995.109048 481.43375)scale(0.4 -0.4)">
       <use xlink:href="#DejaVuSans-31"/>
       <use x="63.623047" xlink:href="#DejaVuSans-39"/>
      </g>
     </g>
    </g>
    <g id="xtick_20">
     <g id="line2d_20">
      <g>
       <use style="stroke:#000000;stroke-width:0.8;" x="1064.679524" xlink:href="#m77f7aaa4cc" y="444.04"/>
      </g>
     </g>
     <g id="text_20">
      <!-- 20 -->
      <g transform="translate(1039.229524 481.43375)scale(0.4 -0.4)">
       <use xlink:href="#DejaVuSans-32"/>
       <use x="63.623047" xlink:href="#DejaVuSans-30"/>
      </g>
     </g>
    </g>
    <g id="text_21">
     <!-- Sample -->
     <g transform="translate(570.54125 524.14625)scale(0.4 -0.4)">
      <defs>
       <path d="M 3425 4513 
L 3425 3897 
Q 3066 4069 2747 4153 
Q 2428 4238 2131 4238 
Q 1616 4238 1336 4038 
Q 1056 3838 1056 3469 
Q 1056 3159 1242 3001 
Q 1428 2844 1947 2747 
L 2328 2669 
Q 3034 2534 3370 2195 
Q 3706 1856 3706 1288 
Q 3706 609 3251 259 
Q 2797 -91 1919 -91 
Q 1588 -91 1214 -16 
Q 841 59 441 206 
L 441 856 
Q 825 641 1194 531 
Q 1563 422 1919 422 
Q 2459 422 2753 634 
Q 3047 847 3047 1241 
Q 3047 1584 2836 1778 
Q 2625 1972 2144 2069 
L 1759 2144 
Q 1053 2284 737 2584 
Q 422 2884 422 3419 
Q 422 4038 858 4394 
Q 1294 4750 2059 4750 
Q 2388 4750 2728 4690 
Q 3069 4631 3425 4513 
z
" id="DejaVuSans-53" transform="scale(0.015625)"/>
       <path d="M 2194 1759 
Q 1497 1759 1228 1600 
Q 959 1441 959 1056 
Q 959 750 1161 570 
Q 1363 391 1709 391 
Q 2188 391 2477 730 
Q 2766 1069 2766 1631 
L 2766 1759 
L 2194 1759 
z
M 3341 1997 
L 3341 0 
L 2766 0 
L 2766 531 
Q 2569 213 2275 61 
Q 1981 -91 1556 -91 
Q 1019 -91 701 211 
Q 384 513 384 1019 
Q 384 1609 779 1909 
Q 1175 2209 1959 2209 
L 2766 2209 
L 2766 2266 
Q 2766 2663 2505 2880 
Q 2244 3097 1772 3097 
Q 1472 3097 1187 3025 
Q 903 2953 641 2809 
L 641 3341 
Q 956 3463 1253 3523 
Q 1550 3584 1831 3584 
Q 2591 3584 2966 3190 
Q 3341 2797 3341 1997 
z
" id="DejaVuSans-61" transform="scale(0.015625)"/>
       <path d="M 3328 2828 
Q 3544 3216 3844 3400 
Q 4144 3584 4550 3584 
Q 5097 3584 5394 3201 
Q 5691 2819 5691 2113 
L 5691 0 
L 5113 0 
L 5113 2094 
Q 5113 2597 4934 2840 
Q 4756 3084 4391 3084 
Q 3944 3084 3684 2787 
Q 3425 2491 3425 1978 
L 3425 0 
L 2847 0 
L 2847 2094 
Q 2847 2600 2669 2842 
Q 2491 3084 2119 3084 
Q 1678 3084 1418 2786 
Q 1159 2488 1159 1978 
L 1159 0 
L 581 0 
L 581 3500 
L 1159 3500 
L 1159 2956 
Q 1356 3278 1631 3431 
Q 1906 3584 2284 3584 
Q 2666 3584 2933 3390 
Q 3200 3197 3328 2828 
z
" id="DejaVuSans-6d" transform="scale(0.015625)"/>
       <path d="M 1159 525 
L 1159 -1331 
L 581 -1331 
L 581 3500 
L 1159 3500 
L 1159 2969 
Q 1341 3281 1617 3432 
Q 1894 3584 2278 3584 
Q 2916 3584 3314 3078 
Q 3713 2572 3713 1747 
Q 3713 922 3314 415 
Q 2916 -91 2278 -91 
Q 1894 -91 1617 61 
Q 1341 213 1159 525 
z
M 3116 1747 
Q 3116 2381 2855 2742 
Q 2594 3103 2138 3103 
Q 1681 3103 1420 2742 
Q 1159 2381 1159 1747 
Q 1159 1113 1420 752 
Q 1681 391 2138 391 
Q 2594 391 2855 752 
Q 3116 1113 3116 1747 
z
" id="DejaVuSans-70" transform="scale(0.015625)"/>
       <path d="M 603 4863 
L 1178 4863 
L 1178 0 
L 603 0 
L 603 4863 
z
" id="DejaVuSans-6c" transform="scale(0.015625)"/>
       <path d="M 3597 1894 
L 3597 1613 
L 953 1613 
Q 991 1019 1311 708 
Q 1631 397 2203 397 
Q 2534 397 2845 478 
Q 3156 559 3463 722 
L 3463 178 
Q 3153 47 2828 -22 
Q 2503 -91 2169 -91 
Q 1331 -91 842 396 
Q 353 884 353 1716 
Q 353 2575 817 3079 
Q 1281 3584 2069 3584 
Q 2775 3584 3186 3129 
Q 3597 2675 3597 1894 
z
M 3022 2063 
Q 3016 2534 2758 2815 
Q 2500 3097 2075 3097 
Q 1594 3097 1305 2825 
Q 1016 2553 972 2059 
L 3022 2063 
z
" id="DejaVuSans-65" transform="scale(0.015625)"/>
      </defs>
      <use xlink:href="#DejaVuSans-53"/>
      <use x="63.476562" xlink:href="#DejaVuSans-61"/>
      <use x="124.755859" xlink:href="#DejaVuSans-6d"/>
      <use x="222.167969" xlink:href="#DejaVuSans-70"/>
      <use x="285.644531" xlink:href="#DejaVuSans-6c"/>
      <use x="313.427734" xlink:href="#DejaVuSans-65"/>
     </g>
    </g>
   </g>
   <g id="matplotlib.axis_2">
    <g id="ytick_1">
     <g id="line2d_21">
      <defs>
       <path d="M 0 0 
L -3.5 0 
" id="ma14b920f85" style="stroke:#000000;stroke-width:0.8;"/>
      </defs>
      <g>
       <use style="stroke:#000000;stroke-width:0.8;" x="182.27" xlink:href="#ma14b920f85" y="434.744082"/>
      </g>
     </g>
     <g id="text_22">
      <!-- 0.80 -->
      <g transform="translate(86.2075 449.940957)scale(0.4 -0.4)">
       <defs>
        <path d="M 684 794 
L 1344 794 
L 1344 0 
L 684 0 
L 684 794 
z
" id="DejaVuSans-2e" transform="scale(0.015625)"/>
       </defs>
       <use xlink:href="#DejaVuSans-30"/>
       <use x="63.623047" xlink:href="#DejaVuSans-2e"/>
       <use x="95.410156" xlink:href="#DejaVuSans-38"/>
       <use x="159.033203" xlink:href="#DejaVuSans-30"/>
      </g>
     </g>
    </g>
    <g id="ytick_2">
     <g id="line2d_22">
      <g>
       <use style="stroke:#000000;stroke-width:0.8;" x="182.27" xlink:href="#ma14b920f85" y="341.413061"/>
      </g>
     </g>
     <g id="text_23">
      <!-- 0.85 -->
      <g transform="translate(86.2075 356.609936)scale(0.4 -0.4)">
       <use xlink:href="#DejaVuSans-30"/>
       <use x="63.623047" xlink:href="#DejaVuSans-2e"/>
       <use x="95.410156" xlink:href="#DejaVuSans-38"/>
       <use x="159.033203" xlink:href="#DejaVuSans-35"/>
      </g>
     </g>
    </g>
    <g id="ytick_3">
     <g id="line2d_23">
      <g>
       <use style="stroke:#000000;stroke-width:0.8;" x="182.27" xlink:href="#ma14b920f85" y="248.082041"/>
      </g>
     </g>
     <g id="text_24">
      <!-- 0.90 -->
      <g transform="translate(86.2075 263.278916)scale(0.4 -0.4)">
       <use xlink:href="#DejaVuSans-30"/>
       <use x="63.623047" xlink:href="#DejaVuSans-2e"/>
       <use x="95.410156" xlink:href="#DejaVuSans-39"/>
       <use x="159.033203" xlink:href="#DejaVuSans-30"/>
      </g>
     </g>
    </g>
    <g id="ytick_4">
     <g id="line2d_24">
      <g>
       <use style="stroke:#000000;stroke-width:0.8;" x="182.27" xlink:href="#ma14b920f85" y="154.75102"/>
      </g>
     </g>
     <g id="text_25">
      <!-- 0.95 -->
      <g transform="translate(86.2075 169.947895)scale(0.4 -0.4)">
       <use xlink:href="#DejaVuSans-30"/>
       <use x="63.623047" xlink:href="#DejaVuSans-2e"/>
       <use x="95.410156" xlink:href="#DejaVuSans-39"/>
       <use x="159.033203" xlink:href="#DejaVuSans-35"/>
      </g>
     </g>
    </g>
    <g id="ytick_5">
     <g id="line2d_25">
      <g>
       <use style="stroke:#000000;stroke-width:0.8;" x="182.27" xlink:href="#ma14b920f85" y="61.42"/>
      </g>
     </g>
     <g id="text_26">
      <!-- 1.00 -->
      <g transform="translate(86.2075 76.616875)scale(0.4 -0.4)">
       <use xlink:href="#DejaVuSans-31"/>
       <use x="63.623047" xlink:href="#DejaVuSans-2e"/>
       <use x="95.410156" xlink:href="#DejaVuSans-30"/>
       <use x="159.033203" xlink:href="#DejaVuSans-30"/>
      </g>
     </g>
    </g>
    <g id="text_27">
     <!-- Relative resistance -->
     <g transform="translate(73.88875 433.179375)rotate(-90)scale(0.4 -0.4)">
      <defs>
       <path d="M 2841 2188 
Q 3044 2119 3236 1894 
Q 3428 1669 3622 1275 
L 4263 0 
L 3584 0 
L 2988 1197 
Q 2756 1666 2539 1819 
Q 2322 1972 1947 1972 
L 1259 1972 
L 1259 0 
L 628 0 
L 628 4666 
L 2053 4666 
Q 2853 4666 3247 4331 
Q 3641 3997 3641 3322 
Q 3641 2881 3436 2590 
Q 3231 2300 2841 2188 
z
M 1259 4147 
L 1259 2491 
L 2053 2491 
Q 2509 2491 2742 2702 
Q 2975 2913 2975 3322 
Q 2975 3731 2742 3939 
Q 2509 4147 2053 4147 
L 1259 4147 
z
" id="DejaVuSans-52" transform="scale(0.015625)"/>
       <path d="M 1172 4494 
L 1172 3500 
L 2356 3500 
L 2356 3053 
L 1172 3053 
L 1172 1153 
Q 1172 725 1289 603 
Q 1406 481 1766 481 
L 2356 481 
L 2356 0 
L 1766 0 
Q 1100 0 847 248 
Q 594 497 594 1153 
L 594 3053 
L 172 3053 
L 172 3500 
L 594 3500 
L 594 4494 
L 1172 4494 
z
" id="DejaVuSans-74" transform="scale(0.015625)"/>
       <path d="M 603 3500 
L 1178 3500 
L 1178 0 
L 603 0 
L 603 3500 
z
M 603 4863 
L 1178 4863 
L 1178 4134 
L 603 4134 
L 603 4863 
z
" id="DejaVuSans-69" transform="scale(0.015625)"/>
       <path d="M 191 3500 
L 800 3500 
L 1894 563 
L 2988 3500 
L 3597 3500 
L 2284 0 
L 1503 0 
L 191 3500 
z
" id="DejaVuSans-76" transform="scale(0.015625)"/>
       <path id="DejaVuSans-20" transform="scale(0.015625)"/>
       <path d="M 2631 2963 
Q 2534 3019 2420 3045 
Q 2306 3072 2169 3072 
Q 1681 3072 1420 2755 
Q 1159 2438 1159 1844 
L 1159 0 
L 581 0 
L 581 3500 
L 1159 3500 
L 1159 2956 
Q 1341 3275 1631 3429 
Q 1922 3584 2338 3584 
Q 2397 3584 2469 3576 
Q 2541 3569 2628 3553 
L 2631 2963 
z
" id="DejaVuSans-72" transform="scale(0.015625)"/>
       <path d="M 2834 3397 
L 2834 2853 
Q 2591 2978 2328 3040 
Q 2066 3103 1784 3103 
Q 1356 3103 1142 2972 
Q 928 2841 928 2578 
Q 928 2378 1081 2264 
Q 1234 2150 1697 2047 
L 1894 2003 
Q 2506 1872 2764 1633 
Q 3022 1394 3022 966 
Q 3022 478 2636 193 
Q 2250 -91 1575 -91 
Q 1294 -91 989 -36 
Q 684 19 347 128 
L 347 722 
Q 666 556 975 473 
Q 1284 391 1588 391 
Q 1994 391 2212 530 
Q 2431 669 2431 922 
Q 2431 1156 2273 1281 
Q 2116 1406 1581 1522 
L 1381 1569 
Q 847 1681 609 1914 
Q 372 2147 372 2553 
Q 372 3047 722 3315 
Q 1072 3584 1716 3584 
Q 2034 3584 2315 3537 
Q 2597 3491 2834 3397 
z
" id="DejaVuSans-73" transform="scale(0.015625)"/>
       <path d="M 3513 2113 
L 3513 0 
L 2938 0 
L 2938 2094 
Q 2938 2591 2744 2837 
Q 2550 3084 2163 3084 
Q 1697 3084 1428 2787 
Q 1159 2491 1159 1978 
L 1159 0 
L 581 0 
L 581 3500 
L 1159 3500 
L 1159 2956 
Q 1366 3272 1645 3428 
Q 1925 3584 2291 3584 
Q 2894 3584 3203 3211 
Q 3513 2838 3513 2113 
z
" id="DejaVuSans-6e" transform="scale(0.015625)"/>
       <path d="M 3122 3366 
L 3122 2828 
Q 2878 2963 2633 3030 
Q 2388 3097 2138 3097 
Q 1578 3097 1268 2742 
Q 959 2388 959 1747 
Q 959 1106 1268 751 
Q 1578 397 2138 397 
Q 2388 397 2633 464 
Q 2878 531 3122 666 
L 3122 134 
Q 2881 22 2623 -34 
Q 2366 -91 2075 -91 
Q 1284 -91 818 406 
Q 353 903 353 1747 
Q 353 2603 823 3093 
Q 1294 3584 2113 3584 
Q 2378 3584 2631 3529 
Q 2884 3475 3122 3366 
z
" id="DejaVuSans-63" transform="scale(0.015625)"/>
      </defs>
      <use xlink:href="#DejaVuSans-52"/>
      <use x="64.982422" xlink:href="#DejaVuSans-65"/>
      <use x="126.505859" xlink:href="#DejaVuSans-6c"/>
      <use x="154.289062" xlink:href="#DejaVuSans-61"/>
      <use x="215.568359" xlink:href="#DejaVuSans-74"/>
      <use x="254.777344" xlink:href="#DejaVuSans-69"/>
      <use x="282.560547" xlink:href="#DejaVuSans-76"/>
      <use x="341.740234" xlink:href="#DejaVuSans-65"/>
      <use x="403.263672" xlink:href="#DejaVuSans-20"/>
      <use x="435.050781" xlink:href="#DejaVuSans-72"/>
      <use x="473.914062" xlink:href="#DejaVuSans-65"/>
      <use x="535.4375" xlink:href="#DejaVuSans-73"/>
      <use x="587.537109" xlink:href="#DejaVuSans-69"/>
      <use x="615.320312" xlink:href="#DejaVuSans-73"/>
      <use x="667.419922" xlink:href="#DejaVuSans-74"/>
      <use x="706.628906" xlink:href="#DejaVuSans-61"/>
      <use x="767.908203" xlink:href="#DejaVuSans-6e"/>
      <use x="831.287109" xlink:href="#DejaVuSans-63"/>
      <use x="886.267578" xlink:href="#DejaVuSans-65"/>
     </g>
    </g>
   </g>
   <g id="line2d_26">
    <path clip-path="url(#p9002f09de4)" d="M 182.27 61.42 
L 1108.8 61.42 
" style="fill:none;stroke:#000000;stroke-dasharray:18.5,8;stroke-dashoffset:0;stroke-width:5;"/>
   </g>
   <g id="line2d_27">
    <defs>
     <path d="M 0 8 
C 2.121625 8 4.156639 7.15707 5.656854 5.656854 
C 7.15707 4.156639 8 2.121625 8 0 
C 8 -2.121625 7.15707 -4.156639 5.656854 -5.656854 
C 4.156639 -7.15707 2.121625 -8 0 -8 
C -2.121625 -8 -4.156639 -7.15707 -5.656854 -5.656854 
C -7.15707 -4.156639 -8 -2.121625 -8 0 
C -8 2.121625 -7.15707 4.156639 -5.656854 5.656854 
C -4.156639 7.15707 -2.121625 8 0 8 
z
" id="mf32837e536" style="stroke:#000000;stroke-width:2;"/>
    </defs>
    <g clip-path="url(#p9002f09de4)">
     <use style="fill-opacity:0;stroke:#000000;stroke-width:2;" x="222.510609" xlink:href="#mf32837e536" y="216.028963"/>
    </g>
   </g>
   <g id="line2d_28">
    <g clip-path="url(#p9002f09de4)">
     <use style="fill-opacity:0;stroke:#000000;stroke-width:2;" x="221.473593" xlink:href="#mf32837e536" y="216.028963"/>
    </g>
   </g>
   <g id="line2d_29">
    <g clip-path="url(#p9002f09de4)">
     <use style="fill-opacity:0;stroke:#000000;stroke-width:2;" x="219.31935" xlink:href="#mf32837e536" y="223.570864"/>
    </g>
   </g>
   <g id="line2d_30">
    <g clip-path="url(#p9002f09de4)">
     <use style="fill-opacity:0;stroke:#000000;stroke-width:2;" x="228.22743" xlink:href="#mf32837e536" y="208.487062"/>
    </g>
   </g>
   <g id="line2d_31">
    <defs>
     <path d="M 0 8 
C 2.121625 8 4.156639 7.15707 5.656854 5.656854 
C 7.15707 4.156639 8 2.121625 8 0 
C 8 -2.121625 7.15707 -4.156639 5.656854 -5.656854 
C 4.156639 -7.15707 2.121625 -8 0 -8 
C -2.121625 -8 -4.156639 -7.15707 -5.656854 -5.656854 
C -7.15707 -4.156639 -8 -2.121625 -8 0 
C -8 2.121625 -7.15707 4.156639 -5.656854 5.656854 
C -4.156639 7.15707 -2.121625 8 0 8 
z
" id="m9b06bb919b" style="stroke:#ffa500;stroke-width:2;"/>
    </defs>
    <g clip-path="url(#p9002f09de4)">
     <use style="fill-opacity:0;stroke:#ffa500;stroke-width:2;" x="267.058301" xlink:href="#m9b06bb919b" y="249.93018"/>
    </g>
   </g>
   <g id="line2d_32">
    <g clip-path="url(#p9002f09de4)">
     <use style="fill-opacity:0;stroke:#ffa500;stroke-width:2;" x="272.980772" xlink:href="#m9b06bb919b" y="257.322736"/>
    </g>
   </g>
   <g id="line2d_33">
    <g clip-path="url(#p9002f09de4)">
     <use style="fill-opacity:0;stroke:#ffa500;stroke-width:2;" x="272.457222" xlink:href="#m9b06bb919b" y="205.574843"/>
    </g>
   </g>
   <g id="line2d_34">
    <g clip-path="url(#p9002f09de4)">
     <use style="fill-opacity:0;stroke:#ffa500;stroke-width:2;" x="272.129313" xlink:href="#m9b06bb919b" y="257.322736"/>
    </g>
   </g>
   <g id="line2d_35">
    <defs>
     <path d="M 0 8 
C 2.121625 8 4.156639 7.15707 5.656854 5.656854 
C 7.15707 4.156639 8 2.121625 8 0 
C 8 -2.121625 7.15707 -4.156639 5.656854 -5.656854 
C 4.156639 -7.15707 2.121625 -8 0 -8 
C -2.121625 -8 -4.156639 -7.15707 -5.656854 -5.656854 
C -7.15707 -4.156639 -8 -2.121625 -8 0 
C -8 2.121625 -7.15707 4.156639 -5.656854 5.656854 
C -4.156639 7.15707 -2.121625 8 0 8 
z
" id="md7234e6907" style="stroke:#d62728;stroke-width:2;"/>
    </defs>
    <g clip-path="url(#p9002f09de4)">
     <use style="fill-opacity:0;stroke:#d62728;stroke-width:2;" x="320.459931" xlink:href="#md7234e6907" y="348.872266"/>
    </g>
   </g>
   <g id="line2d_36">
    <g clip-path="url(#p9002f09de4)">
     <use style="fill-opacity:0;stroke:#d62728;stroke-width:2;" x="304.782844" xlink:href="#md7234e6907" y="356.149538"/>
    </g>
   </g>
   <g id="line2d_37">
    <g clip-path="url(#p9002f09de4)">
     <use style="fill-opacity:0;stroke:#d62728;stroke-width:2;" x="321.031601" xlink:href="#md7234e6907" y="348.872266"/>
    </g>
   </g>
   <g id="line2d_38">
    <g clip-path="url(#p9002f09de4)">
     <use style="fill-opacity:0;stroke:#d62728;stroke-width:2;" x="304.553436" xlink:href="#md7234e6907" y="261.544995"/>
    </g>
   </g>
   <g id="line2d_39">
    <defs>
     <path d="M 0 8 
C 2.121625 8 4.156639 7.15707 5.656854 5.656854 
C 7.15707 4.156639 8 2.121625 8 0 
C 8 -2.121625 7.15707 -4.156639 5.656854 -5.656854 
C 4.156639 -7.15707 2.121625 -8 0 -8 
C -2.121625 -8 -4.156639 -7.15707 -5.656854 -5.656854 
C -7.15707 -4.156639 -8 -2.121625 -8 0 
C -8 2.121625 -7.15707 4.156639 -5.656854 5.656854 
C -4.156639 7.15707 -2.121625 8 0 8 
z
" id="mf51d6ff42b" style="stroke:#2ca02c;stroke-width:2;"/>
    </defs>
    <g clip-path="url(#p9002f09de4)">
     <use style="fill-opacity:0;stroke:#2ca02c;stroke-width:2;" x="355.183361" xlink:href="#mf51d6ff42b" y="232.464898"/>
    </g>
   </g>
   <g id="line2d_40">
    <g clip-path="url(#p9002f09de4)">
     <use style="fill-opacity:0;stroke:#2ca02c;stroke-width:2;" x="367.8014" xlink:href="#mf51d6ff42b" y="232.464898"/>
    </g>
   </g>
   <g id="line2d_41">
    <g clip-path="url(#p9002f09de4)">
     <use style="fill-opacity:0;stroke:#2ca02c;stroke-width:2;" x="353.573182" xlink:href="#mf51d6ff42b" y="254.775102"/>
    </g>
   </g>
   <g id="line2d_42">
    <g clip-path="url(#p9002f09de4)">
     <use style="fill-opacity:0;stroke:#2ca02c;stroke-width:2;" x="363.780359" xlink:href="#mf51d6ff42b" y="187.84449"/>
    </g>
   </g>
   <g id="line2d_43">
    <g clip-path="url(#p9002f09de4)">
     <use style="fill-opacity:0;stroke:#000000;stroke-width:2;" x="587.454777" xlink:href="#mf32837e536" y="238.654665"/>
    </g>
   </g>
   <g id="line2d_44">
    <g clip-path="url(#p9002f09de4)">
     <use style="fill-opacity:0;stroke:#000000;stroke-width:2;" x="589.880248" xlink:href="#mf32837e536" y="246.196566"/>
    </g>
   </g>
   <g id="line2d_45">
    <g clip-path="url(#p9002f09de4)">
     <use style="fill-opacity:0;stroke:#000000;stroke-width:2;" x="587.707296" xlink:href="#mf32837e536" y="253.738466"/>
    </g>
   </g>
   <g id="line2d_46">
    <g clip-path="url(#p9002f09de4)">
     <use style="fill-opacity:0;stroke:#000000;stroke-width:2;" x="570.018844" xlink:href="#mf32837e536" y="261.280367"/>
    </g>
   </g>
   <g id="line2d_47">
    <g clip-path="url(#p9002f09de4)">
     <use style="fill-opacity:0;stroke:#ffa500;stroke-width:2;" x="616.009943" xlink:href="#m9b06bb919b" y="264.715292"/>
    </g>
   </g>
   <g id="line2d_48">
    <g clip-path="url(#p9002f09de4)">
     <use style="fill-opacity:0;stroke:#ffa500;stroke-width:2;" x="623.151189" xlink:href="#m9b06bb919b" y="249.93018"/>
    </g>
   </g>
   <g id="line2d_49">
    <g clip-path="url(#p9002f09de4)">
     <use style="fill-opacity:0;stroke:#ffa500;stroke-width:2;" x="623.944495" xlink:href="#m9b06bb919b" y="249.93018"/>
    </g>
   </g>
   <g id="line2d_50">
    <g clip-path="url(#p9002f09de4)">
     <use style="fill-opacity:0;stroke:#ffa500;stroke-width:2;" x="614.360763" xlink:href="#m9b06bb919b" y="323.855741"/>
    </g>
   </g>
   <g id="line2d_51">
    <g clip-path="url(#p9002f09de4)">
     <use style="fill-opacity:0;stroke:#d62728;stroke-width:2;" x="668.207389" xlink:href="#md7234e6907" y="363.426811"/>
    </g>
   </g>
   <g id="line2d_52">
    <g clip-path="url(#p9002f09de4)">
     <use style="fill-opacity:0;stroke:#d62728;stroke-width:2;" x="674.532935" xlink:href="#md7234e6907" y="327.040448"/>
    </g>
   </g>
   <g id="line2d_53">
    <g clip-path="url(#p9002f09de4)">
     <use style="fill-opacity:0;stroke:#d62728;stroke-width:2;" x="664.044954" xlink:href="#md7234e6907" y="392.535901"/>
    </g>
   </g>
   <g id="line2d_54">
    <g clip-path="url(#p9002f09de4)">
     <use style="fill-opacity:0;stroke:#d62728;stroke-width:2;" x="670.54392" xlink:href="#md7234e6907" y="385.258628"/>
    </g>
   </g>
   <g id="line2d_55">
    <g clip-path="url(#p9002f09de4)">
     <use style="fill-opacity:0;stroke:#2ca02c;stroke-width:2;" x="712.238154" xlink:href="#mf51d6ff42b" y="306.832245"/>
    </g>
   </g>
   <g id="line2d_56">
    <g clip-path="url(#p9002f09de4)">
     <use style="fill-opacity:0;stroke:#2ca02c;stroke-width:2;" x="705.51832" xlink:href="#mf51d6ff42b" y="262.211837"/>
    </g>
   </g>
   <g id="line2d_57">
    <g clip-path="url(#p9002f09de4)">
     <use style="fill-opacity:0;stroke:#2ca02c;stroke-width:2;" x="722.202012" xlink:href="#mf51d6ff42b" y="247.338367"/>
    </g>
   </g>
   <g id="line2d_58">
    <g clip-path="url(#p9002f09de4)">
     <use style="fill-opacity:0;stroke:#2ca02c;stroke-width:2;" x="710.411742" xlink:href="#mf51d6ff42b" y="247.338367"/>
    </g>
   </g>
   <g id="line2d_59">
    <g clip-path="url(#p9002f09de4)">
     <use style="fill-opacity:0;stroke:#000000;stroke-width:2;" x="940.141445" xlink:href="#mf32837e536" y="216.028963"/>
    </g>
   </g>
   <g id="line2d_60">
    <g clip-path="url(#p9002f09de4)">
     <use style="fill-opacity:0;stroke:#000000;stroke-width:2;" x="931.185959" xlink:href="#mf32837e536" y="298.98987"/>
    </g>
   </g>
   <g id="line2d_61">
    <g clip-path="url(#p9002f09de4)">
     <use style="fill-opacity:0;stroke:#000000;stroke-width:2;" x="923.886608" xlink:href="#mf32837e536" y="261.280367"/>
    </g>
   </g>
   <g id="line2d_62">
    <g clip-path="url(#p9002f09de4)">
     <use style="fill-opacity:0;stroke:#000000;stroke-width:2;" x="923.111291" xlink:href="#mf32837e536" y="276.364168"/>
    </g>
   </g>
   <g id="line2d_63">
    <g clip-path="url(#p9002f09de4)">
     <use style="fill-opacity:0;stroke:#ffa500;stroke-width:2;" x="986.820599" xlink:href="#m9b06bb919b" y="286.89296"/>
    </g>
   </g>
   <g id="line2d_64">
    <g clip-path="url(#p9002f09de4)">
     <use style="fill-opacity:0;stroke:#ffa500;stroke-width:2;" x="975.235073" xlink:href="#m9b06bb919b" y="286.89296"/>
    </g>
   </g>
   <g id="line2d_65">
    <g clip-path="url(#p9002f09de4)">
     <use style="fill-opacity:0;stroke:#ffa500;stroke-width:2;" x="966.855426" xlink:href="#m9b06bb919b" y="323.855741"/>
    </g>
   </g>
   <g id="line2d_66">
    <g clip-path="url(#p9002f09de4)">
     <use style="fill-opacity:0;stroke:#ffa500;stroke-width:2;" x="981.446994" xlink:href="#m9b06bb919b" y="331.248297"/>
    </g>
   </g>
   <g id="line2d_67">
    <g clip-path="url(#p9002f09de4)">
     <use style="fill-opacity:0;stroke:#d62728;stroke-width:2;" x="1022.76732" xlink:href="#md7234e6907" y="341.594993"/>
    </g>
   </g>
   <g id="line2d_68">
    <g clip-path="url(#p9002f09de4)">
     <use style="fill-opacity:0;stroke:#d62728;stroke-width:2;" x="1025.893633" xlink:href="#md7234e6907" y="370.704083"/>
    </g>
   </g>
   <g id="line2d_69">
    <g clip-path="url(#p9002f09de4)">
     <use style="fill-opacity:0;stroke:#d62728;stroke-width:2;" x="1013.143247" xlink:href="#md7234e6907" y="377.981356"/>
    </g>
   </g>
   <g id="line2d_70">
    <g clip-path="url(#p9002f09de4)">
     <use style="fill-opacity:0;stroke:#d62728;stroke-width:2;" x="1028.972166" xlink:href="#md7234e6907" y="348.872266"/>
    </g>
   </g>
   <g id="line2d_71">
    <g clip-path="url(#p9002f09de4)">
     <use style="fill-opacity:0;stroke:#2ca02c;stroke-width:2;" x="1068.460466" xlink:href="#mf51d6ff42b" y="403.509796"/>
    </g>
   </g>
   <g id="line2d_72">
    <g clip-path="url(#p9002f09de4)">
     <use style="fill-opacity:0;stroke:#2ca02c;stroke-width:2;" x="1072.015485" xlink:href="#mf51d6ff42b" y="381.199592"/>
    </g>
   </g>
   <g id="line2d_73">
    <g clip-path="url(#p9002f09de4)">
     <use style="fill-opacity:0;stroke:#2ca02c;stroke-width:2;" x="1072.237116" xlink:href="#mf51d6ff42b" y="425.82"/>
    </g>
   </g>
   <g id="line2d_74">
    <g clip-path="url(#p9002f09de4)">
     <use style="fill-opacity:0;stroke:#2ca02c;stroke-width:2;" x="1065.164904" xlink:href="#mf51d6ff42b" y="403.509796"/>
    </g>
   </g>
   <g id="line2d_75">
    <g clip-path="url(#p9002f09de4)">
     <use style="fill-opacity:0;stroke:#000000;stroke-width:2;" x="138.149524" xlink:href="#mf32837e536" y="154.75102"/>
    </g>
   </g>
   <g id="line2d_76">
    <g clip-path="url(#p9002f09de4)">
     <use style="fill-opacity:0;stroke:#ffa500;stroke-width:2;" x="138.149524" xlink:href="#m9b06bb919b" y="154.75102"/>
    </g>
   </g>
   <g id="line2d_77">
    <g clip-path="url(#p9002f09de4)">
     <use style="fill-opacity:0;stroke:#d62728;stroke-width:2;" x="138.149524" xlink:href="#md7234e6907" y="154.75102"/>
    </g>
   </g>
   <g id="line2d_78">
    <g clip-path="url(#p9002f09de4)">
     <use style="fill-opacity:0;stroke:#2ca02c;stroke-width:2;" x="138.149524" xlink:href="#mf51d6ff42b" y="154.75102"/>
    </g>
   </g>
   <g id="patch_3">
    <path d="M 182.27 444.04 
L 182.27 43.2 
" style="fill:none;stroke:#000000;stroke-linecap:square;stroke-linejoin:miter;stroke-width:0.8;"/>
   </g>
   <g id="patch_4">
    <path d="M 1108.8 444.04 
L 1108.8 43.2 
" style="fill:none;stroke:#000000;stroke-linecap:square;stroke-linejoin:miter;stroke-width:0.8;"/>
   </g>
   <g id="patch_5">
    <path d="M 182.27 444.04 
L 1108.8 444.04 
" style="fill:none;stroke:#000000;stroke-linecap:square;stroke-linejoin:miter;stroke-width:0.8;"/>
   </g>
   <g id="patch_6">
    <path d="M 182.27 43.2 
L 1108.8 43.2 
" style="fill:none;stroke:#000000;stroke-linecap:square;stroke-linejoin:miter;stroke-width:0.8;"/>
   </g>
   <g id="legend_1">
    <g id="patch_7">
     <path d="M 526.3875 192.625 
L 1080.8 192.625 
Q 1088.8 192.625 1088.8 184.625 
L 1088.8 71.2 
Q 1088.8 63.2 1080.8 63.2 
L 526.3875 63.2 
Q 518.3875 63.2 518.3875 71.2 
L 518.3875 184.625 
Q 518.3875 192.625 526.3875 192.625 
z
" style="fill:#ffffff;opacity:0.8;stroke:#cccccc;stroke-linejoin:miter;"/>
    </g>
    <g id="line2d_79"/>
    <g id="line2d_80">
     <g>
      <use style="fill-opacity:0;stroke:#000000;stroke-width:2;" x="574.3875" xlink:href="#mf32837e536" y="95.59375"/>
     </g>
    </g>
    <g id="text_28">
     <!-- EGM -->
     <g transform="translate(646.3875 109.59375)scale(0.4 -0.4)">
      <defs>
       <path d="M 628 4666 
L 3578 4666 
L 3578 4134 
L 1259 4134 
L 1259 2753 
L 3481 2753 
L 3481 2222 
L 1259 2222 
L 1259 531 
L 3634 531 
L 3634 0 
L 628 0 
L 628 4666 
z
" id="DejaVuSans-45" transform="scale(0.015625)"/>
       <path d="M 3809 666 
L 3809 1919 
L 2778 1919 
L 2778 2438 
L 4434 2438 
L 4434 434 
Q 4069 175 3628 42 
Q 3188 -91 2688 -91 
Q 1594 -91 976 548 
Q 359 1188 359 2328 
Q 359 3472 976 4111 
Q 1594 4750 2688 4750 
Q 3144 4750 3555 4637 
Q 3966 4525 4313 4306 
L 4313 3634 
Q 3963 3931 3569 4081 
Q 3175 4231 2741 4231 
Q 1884 4231 1454 3753 
Q 1025 3275 1025 2328 
Q 1025 1384 1454 906 
Q 1884 428 2741 428 
Q 3075 428 3337 486 
Q 3600 544 3809 666 
z
" id="DejaVuSans-47" transform="scale(0.015625)"/>
       <path d="M 628 4666 
L 1569 4666 
L 2759 1491 
L 3956 4666 
L 4897 4666 
L 4897 0 
L 4281 0 
L 4281 4097 
L 3078 897 
L 2444 897 
L 1241 4097 
L 1241 0 
L 628 0 
L 628 4666 
z
" id="DejaVuSans-4d" transform="scale(0.015625)"/>
      </defs>
      <use xlink:href="#DejaVuSans-45"/>
      <use x="63.183594" xlink:href="#DejaVuSans-47"/>
      <use x="140.673828" xlink:href="#DejaVuSans-4d"/>
     </g>
    </g>
    <g id="line2d_81"/>
    <g id="line2d_82">
     <g>
      <use style="fill-opacity:0;stroke:#ffa500;stroke-width:2;" x="574.3875" xlink:href="#m9b06bb919b" y="154.30625"/>
     </g>
    </g>
    <g id="text_29">
     <!-- 0.5 uM -->
     <g transform="translate(646.3875 168.30625)scale(0.4 -0.4)">
      <defs>
       <path d="M 544 1381 
L 544 3500 
L 1119 3500 
L 1119 1403 
Q 1119 906 1312 657 
Q 1506 409 1894 409 
Q 2359 409 2629 706 
Q 2900 1003 2900 1516 
L 2900 3500 
L 3475 3500 
L 3475 0 
L 2900 0 
L 2900 538 
Q 2691 219 2414 64 
Q 2138 -91 1772 -91 
Q 1169 -91 856 284 
Q 544 659 544 1381 
z
M 1991 3584 
L 1991 3584 
z
" id="DejaVuSans-75" transform="scale(0.015625)"/>
      </defs>
      <use xlink:href="#DejaVuSans-30"/>
      <use x="63.623047" xlink:href="#DejaVuSans-2e"/>
      <use x="95.410156" xlink:href="#DejaVuSans-35"/>
      <use x="159.033203" xlink:href="#DejaVuSans-20"/>
      <use x="190.820312" xlink:href="#DejaVuSans-75"/>
      <use x="254.199219" xlink:href="#DejaVuSans-4d"/>
     </g>
    </g>
    <g id="line2d_83"/>
    <g id="line2d_84">
     <g>
      <use style="fill-opacity:0;stroke:#d62728;stroke-width:2;" x="902.575" xlink:href="#md7234e6907" y="95.59375"/>
     </g>
    </g>
    <g id="text_30">
     <!-- 5 uM -->
     <g transform="translate(974.575 109.59375)scale(0.4 -0.4)">
      <use xlink:href="#DejaVuSans-35"/>
      <use x="63.623047" xlink:href="#DejaVuSans-20"/>
      <use x="95.410156" xlink:href="#DejaVuSans-75"/>
      <use x="158.789062" xlink:href="#DejaVuSans-4d"/>
     </g>
    </g>
    <g id="line2d_85"/>
    <g id="line2d_86">
     <g>
      <use style="fill-opacity:0;stroke:#2ca02c;stroke-width:2;" x="902.575" xlink:href="#mf51d6ff42b" y="154.30625"/>
     </g>
    </g>
    <g id="text_31">
     <!-- TNFa -->
     <g transform="translate(974.575 168.30625)scale(0.4 -0.4)">
      <defs>
       <path d="M -19 4666 
L 3928 4666 
L 3928 4134 
L 2272 4134 
L 2272 0 
L 1638 0 
L 1638 4134 
L -19 4134 
L -19 4666 
z
" id="DejaVuSans-54" transform="scale(0.015625)"/>
       <path d="M 628 4666 
L 1478 4666 
L 3547 763 
L 3547 4666 
L 4159 4666 
L 4159 0 
L 3309 0 
L 1241 3903 
L 1241 0 
L 628 0 
L 628 4666 
z
" id="DejaVuSans-4e" transform="scale(0.015625)"/>
       <path d="M 628 4666 
L 3309 4666 
L 3309 4134 
L 1259 4134 
L 1259 2759 
L 3109 2759 
L 3109 2228 
L 1259 2228 
L 1259 0 
L 628 0 
L 628 4666 
z
" id="DejaVuSans-46" transform="scale(0.015625)"/>
      </defs>
      <use xlink:href="#DejaVuSans-54"/>
      <use x="61.083984" xlink:href="#DejaVuSans-4e"/>
      <use x="135.888672" xlink:href="#DejaVuSans-46"/>
      <use x="184.283203" xlink:href="#DejaVuSans-61"/>
     </g>
    </g>
   </g>
   <g id="line2d_87">
    <path clip-path="url(#p9002f09de4)" d="M 215.360357 216.028963 
L 237.420595 216.028963 
" style="fill:none;stroke:#000000;stroke-linecap:square;stroke-width:6;"/>
   </g>
   <g id="line2d_88">
    <path clip-path="url(#p9002f09de4)" d="M 259.480833 242.537624 
L 281.541071 242.537624 
" style="fill:none;stroke:#ffa500;stroke-linecap:square;stroke-width:6;"/>
   </g>
   <g id="line2d_89">
    <path clip-path="url(#p9002f09de4)" d="M 303.60131 328.859766 
L 325.661548 328.859766 
" style="fill:none;stroke:#d62728;stroke-linecap:square;stroke-width:6;"/>
   </g>
   <g id="line2d_90">
    <path clip-path="url(#p9002f09de4)" d="M 347.721786 226.887347 
L 369.782024 226.887347 
" style="fill:none;stroke:#2ca02c;stroke-linecap:square;stroke-width:6;"/>
   </g>
   <g id="line2d_91">
    <path clip-path="url(#p9002f09de4)" d="M 568.324167 249.967516 
L 590.384405 249.967516 
" style="fill:none;stroke:#000000;stroke-linecap:square;stroke-width:6;"/>
   </g>
   <g id="line2d_92">
    <path clip-path="url(#p9002f09de4)" d="M 612.444643 272.107848 
L 634.504881 272.107848 
" style="fill:none;stroke:#ffa500;stroke-linecap:square;stroke-width:6;"/>
   </g>
   <g id="line2d_93">
    <path clip-path="url(#p9002f09de4)" d="M 656.565119 367.065447 
L 678.625357 367.065447 
" style="fill:none;stroke:#d62728;stroke-linecap:square;stroke-width:6;"/>
   </g>
   <g id="line2d_94">
    <path clip-path="url(#p9002f09de4)" d="M 700.685595 265.930204 
L 722.745833 265.930204 
" style="fill:none;stroke:#2ca02c;stroke-linecap:square;stroke-width:6;"/>
   </g>
   <g id="line2d_95">
    <path clip-path="url(#p9002f09de4)" d="M 921.287976 263.165842 
L 943.348214 263.165842 
" style="fill:none;stroke:#000000;stroke-linecap:square;stroke-width:6;"/>
   </g>
   <g id="line2d_96">
    <path clip-path="url(#p9002f09de4)" d="M 965.408452 307.222489 
L 987.46869 307.222489 
" style="fill:none;stroke:#ffa500;stroke-linecap:square;stroke-width:6;"/>
   </g>
   <g id="line2d_97">
    <path clip-path="url(#p9002f09de4)" d="M 1009.528929 359.788174 
L 1031.589167 359.788174 
" style="fill:none;stroke:#d62728;stroke-linecap:square;stroke-width:6;"/>
   </g>
   <g id="line2d_98">
    <path clip-path="url(#p9002f09de4)" d="M 1053.649405 403.509796 
L 1075.709643 403.509796 
" style="fill:none;stroke:#2ca02c;stroke-linecap:square;stroke-width:6;"/>
   </g>
  </g>
 </g>
 <defs>
  <clipPath id="p9002f09de4">
   <rect height="400.84" width="926.53" x="182.27" y="43.2"/>
  </clipPath>
 </defs>
</svg>
